<svg xmlns="http://www.w3.org/2000/svg" width="413.677" height="401.011" viewBox="0 0 413.677 401.011">
  <g id="组_1" data-name="组 1" transform="translate(-411.998 -296.982)">
    <path id="路径_1" data-name="路径 1" d="M86.559,3.008c12.175,5.3,19.421,27.613,23.871,38.84,24.2,63.479,25.257,134.324-3.418,208.647a268.358,268.358,0,0,1-40.639,62.357c-.324.413-.679.826-1.031,1.239-1.5,1.769-3.033,3.476-4.685,5.1-6.188-2.681-10.579-9.519-14.617-14.676-.56-.649-1.09-1.325-1.622-2.035a216.428,216.428,0,0,1-18.329-27.968c-.266-.467-.53-.973-.826-1.444A195.416,195.416,0,0,1,.04,180.71v-6.748c-.03-2.27-.03-4.538-.058-6.808a171.108,171.108,0,0,1,3.679-37.4c.147-.649.294-1.3.441-1.974,8.1-36.661,26.346-73.5,53.547-99.755a40.05,40.05,0,0,0,2.947-3.36,47.5,47.5,0,0,1,5.924-5.747c1.533-1.325,2.977-2.711,4.449-4.1A135.426,135.426,0,0,1,86.559,3.008Zm0,0" transform="translate(412.028 316.846)" fill="#fff"/>
    <path id="路径_2" data-name="路径 2" d="M114.467,18.974q2.476,2.21,4.862,4.51c.56.53,1.09,1.031,1.68,1.561,13.026,12.466,20.532,30.1,22.9,47.8.089.649.177,1.3.266,1.974a252.765,252.765,0,0,1-8.222,106.12c-.177.56-.355,1.12-.53,1.71a220.5,220.5,0,0,1-16.1,38.311c-.233.441-.467.915-.737,1.386a211.775,211.775,0,0,1-21.174,32.623l-.973,1.237c-4.666,5.924-9.519,11.612-14.676,17.093-.933,1-1.867,2.035-2.769,3.066A170.908,170.908,0,0,1,65.879,289.39c-.973.884-1.916,1.769-2.858,2.681-3.92,3.654-7.986,7.014-12.231,10.285-1.622,1.237-3.213,2.534-4.8,3.831a212.19,212.19,0,0,1-17.653,12.968c-1.475.973-2.916,1.946-4.391,2.917-.933.649-1.885,1.267-2.83,1.885-.413.294-.854.59-1.3.884a30.2,30.2,0,0,1-6.778,3.5A28.419,28.419,0,0,1,17.1,321c24.666-36.164,39.7-80.866,45.768-124.067.089-.737.205-1.475.324-2.24,8.752-61.974-6.9-127.625-40.875-179.888-.53-.7-.53-.7-1.09-1.414a3.075,3.075,0,0,1-.884-2.594,83.416,83.416,0,0,1,94.121,8.175Zm0,0" transform="translate(497.52 297.018)" fill="#fff"/>
    <path id="路径_3" data-name="路径 3" d="M276.409,58.007c-5.217,25.756-20.156,49.774-37.191,69.372-.618.7-.618.7-1.237,1.444-1.12,1.3-2.27,2.592-3.418,3.889-.56.649-1.15,1.267-1.71,1.946a98.243,98.243,0,0,1-9.566,9.608c-1.533,1.3-2.977,2.653-4.449,4.008a149.776,149.776,0,0,1-12.17,9.783c-.649.53-1.325,1.031-2,1.591a6.192,6.192,0,0,1-5.952.413,33.16,33.16,0,0,1-3.978-1.974c-.765-.413-1.533-.8-2.333-1.237-.383-.205-.8-.441-1.209-.649A281.214,281.214,0,0,0,82.409,122.722c-.53-.058-1.031-.119-1.591-.147-3.213-.294-6.454-.441-9.7-.53l-1.65-.058a273.918,273.918,0,0,0-41.111,2.333,62.368,62.368,0,0,1-9.076.383,54.112,54.112,0,0,1,6.041-4.379,85.292,85.292,0,0,0,11.258-9.636c.355-.355.7-.7,1.09-1.062a136.658,136.658,0,0,0,12.17-13.262c1.237-1.561,2.566-3.066,3.92-4.568,3.152-3.537,6.066-7.28,8.959-11.022.765-1.031,1.533-2.035,2.333-3.033,5.6-7.28,11.022-14.645,16.15-22.28,1.916-2.888,3.95-5.716,6.013-8.546a10.565,10.565,0,0,0,1.769-2.741,9.05,9.05,0,0,1,6.512-4.9c1.591-.383,3.152-.737,4.746-1.062.826-.177,1.68-.383,2.566-.56,9.725-2.182,19.568-3.712,29.44-5.009.649-.089,1.3-.177,1.946-.294A243.082,243.082,0,0,1,276.409,58.007Zm0,0" transform="translate(538.418 496.661)" fill="#fff"/>
    <path id="路径_4" data-name="路径 4" d="M204.053,27.554c8.075,10.462,8.724,31.533,8.782,44.174v2.1c.03,2.24.03,4.48.03,6.748v2.3a204.533,204.533,0,0,1-2.182,33.418c-.177,1.209-.355,2.445-.53,3.654a45.891,45.891,0,0,1-2.121,10.343c-4.125-1.325-8.133-2.83-12.17-4.48A291.73,291.73,0,0,0,92.424,103.618c-.618-.03-1.209-.03-1.867-.03a268.957,268.957,0,0,0-59.911,5.366,32.665,32.665,0,0,1,2.977-9.636A248.254,248.254,0,0,0,45.086,60.624l.59-2.476c.915-3.978,1.71-7.9,2.333-11.934.177-1.09.177-1.09.355-2.21.233-1.386.413-2.741.56-4.125a12.76,12.76,0,0,1,1.65-4.981,28.834,28.834,0,0,1,7.986-3.336c.649-.233,1.267-.441,1.946-.679C98.7,17.593,166.537,7.367,204.053,27.554Zm0,0" transform="translate(612.781 403.017)" fill="#fff"/>
    <path id="路径_13" data-name="路径 13" d="M102.042,45.482c45.355-.8,87.084,9.725,127.515,30.058v2c-50.009,25.7-108.626,34.214-162.791,16.738a188.948,188.948,0,0,1-23.252-9.4c-.56-.294-1.15-.56-1.738-.854A194.453,194.453,0,0,1,19.349,71.149c-.7-.441-1.386-.915-2.1-1.386-4.9-3.3-4.9-3.3-5.628-5.569a255.409,255.409,0,0,1,90.42-18.712Zm0,0" transform="translate(488.284 594.531)" fill="#fff"/>
    <path id="路径_15" data-name="路径 15" d="M102.314,6.46a68.2,68.2,0,0,1,48.8,19.242,103.306,103.306,0,0,1,24.134,40.2c-6.778-.5-13.5-1.325-20.245-2.182a254.329,254.329,0,0,0-32.445-1.946H120.7c-29.853.058-58.232,5.628-86.965,13.467C32.641,58.149,39.918,41.913,51,29.211,62.991,15.679,81.115,7.874,98.943,6.638Zm0,0" transform="translate(632.267 339.325)" fill="#fff"/>
  </g>
</svg>
