<svg xmlns="http://www.w3.org/2000/svg" width="199.253" height="186.17" viewBox="0 0 199.253 186.17">
  <g id="组_112" data-name="组 112" transform="translate(-2152.086 -734.042)">
    <g id="组_76" data-name="组 76">
      <path id="路径_499" data-name="路径 499" d="M2261.174,867.862v-15.52a22.626,22.626,0,0,0,22.6-22.6h15.519A38.163,38.163,0,0,1,2261.174,867.862Z" fill="#fff"/>
    </g>
    <g id="组_77" data-name="组 77">
      <path id="路径_500" data-name="路径 500" d="M2246.89,756.163a22.626,22.626,0,0,0-31.962,0l-10.974-10.974a38.162,38.162,0,0,1,53.909,0Z" fill="#fff"/>
    </g>
    <g id="组_78" data-name="组 78">
      <path id="路径_501" data-name="路径 501" d="M2273.721,767.31a38.005,38.005,0,0,1-26.955-11.147l10.974-10.974a22.626,22.626,0,0,0,31.962,0l10.974,10.974A38,38,0,0,1,2273.721,767.31Z" fill="#fff"/>
    </g>
    <g id="组_79" data-name="组 79">
      <path id="路径_502" data-name="路径 502" d="M2226.418,810.81H2210.9V771.526h41.221v15.519h-25.7Z" fill="#fff"/>
    </g>
    <g id="组_80" data-name="组 80">
      <rect id="矩形_10" data-name="矩形 10" width="16.452" height="41.428" transform="translate(2210.887 827.262) rotate(-90)" fill="#fff"/>
    </g>
    <g id="组_82" data-name="组 82">
      <circle id="椭圆_9" data-name="椭圆 9" cx="12.613" cy="12.613" r="12.613" transform="translate(2260.547 788.11)" fill="#fff"/>
    </g>
    <path id="路径_524" data-name="路径 524" d="M2227.351,891.546c0,.027,0,.055,0,.082v-.346A1.152,1.152,0,0,0,2227.351,891.546Z" fill="#fff"/>
    <g id="组_84" data-name="组 84">
      <path id="路径_525" data-name="路径 525" d="M2153.182,899.212q.126.462.21.859a3.8,3.8,0,0,0,.251.775,6.377,6.377,0,0,0,1.257,1.927,9.792,9.792,0,0,0,1.759,1.466,11.091,11.091,0,0,0,1.634.817q.88.355,1.844.691.335.084.607.168c.181.056.383.112.607.167a.672.672,0,0,0,.294.084.967.967,0,0,1,.335.084,12.078,12.078,0,0,0,1.319.356q.691.147,1.362.356c.223.056.425.105.607.147s.37.09.566.146q.754.252,1.529.482a6.135,6.135,0,0,1,1.4.607,5.014,5.014,0,0,1,.461.252,3.415,3.415,0,0,1,.91.83h6.932a5.7,5.7,0,0,0-.134-.872.416.416,0,0,1-.042-.189.74.74,0,0,0-.042-.23c-.112-.279-.217-.559-.314-.838a3.834,3.834,0,0,0-.356-.754,8.282,8.282,0,0,0-1.529-1.843,15.83,15.83,0,0,0-1.948-1.425,5.867,5.867,0,0,0-1.613-.712q-.9-.25-1.738-.544a1.127,1.127,0,0,0-.419-.084,1.116,1.116,0,0,1-.419-.084q-1.173-.335-2.367-.607t-2.325-.65a9.719,9.719,0,0,0-.985-.272,4.593,4.593,0,0,1-.942-.314,10.732,10.732,0,0,1-1.445-.691,2.038,2.038,0,0,1-.738-.8h-6.627A5.636,5.636,0,0,0,2153.182,899.212Z" fill="#fff"/>
      <path id="路径_526" data-name="路径 526" d="M2187.617,907.213a1.069,1.069,0,0,1,.4-.565,1.59,1.59,0,0,1,.67-.252,4.328,4.328,0,0,1,.859-.042c.307.015.628.021.963.021h8.169c.2,0,.44.008.733.021s.586.021.88.021a6.638,6.638,0,0,0,.8-.042,1.409,1.409,0,0,0,.565-.167,1,1,0,0,0,.335-.545,1.347,1.347,0,0,0,.084-.5v-.587q0-.334.021-.8t0-.9a4.829,4.829,0,0,0-.1-.816.737.737,0,0,0-.293-.5,1.11,1.11,0,0,0-.524-.168c-.237-.027-.5-.048-.774-.063s-.566-.013-.859,0-.538.021-.733.021h-9.468c-.251,0-.489-.006-.712-.021a1.151,1.151,0,0,1-.586-.188.667.667,0,0,1-.294-.356,5.485,5.485,0,0,1-.167-.566v7.436A2.164,2.164,0,0,1,2187.617,907.213Z" fill="#fff"/>
      <path id="路径_527" data-name="路径 527" d="M2203.577,914.377a.752.752,0,0,0-.461-.461,1.241,1.241,0,0,0-.565-.126h-12.505q-.21,0-.46.021a1.643,1.643,0,0,1-.461-.021h-.419a1.583,1.583,0,0,0-.4-.1.5.5,0,0,1-.314-.146.879.879,0,0,1-.357-.608,5.923,5.923,0,0,1-.062-.9v7.205h15.06a.979.979,0,0,0,.649-.209.811.811,0,0,0,.377-.65q.042-.44.042-.942v-1.927c0-.224-.007-.433-.021-.629A1.7,1.7,0,0,0,2203.577,914.377Z" fill="#fff"/>
      <path id="路径_528" data-name="路径 528" d="M2187.637,895.714a.879.879,0,0,1,.357-.607,1.279,1.279,0,0,1,.544-.189,7.227,7.227,0,0,1,.817-.084c.293-.013.587-.013.88,0s.551.021.775.021h11.269a1.107,1.107,0,0,0,.628-.167,1.008,1.008,0,0,0,.419-.671,3.486,3.486,0,0,1,.042-.628,3.025,3.025,0,0,0,.021-.607c-.015-.21-.021-.426-.021-.65,0-.2.006-.4.021-.628a3.2,3.2,0,0,0-.021-.628v-.461a1.046,1.046,0,0,1-.1-.335.669.669,0,0,0-.1-.294.872.872,0,0,0-.67-.335c-.307-.027-.628-.042-.963-.042h-13.95v7.206A5.936,5.936,0,0,1,2187.637,895.714Z" fill="#fff"/>
      <path id="路径_529" data-name="路径 529" d="M2227.288,907.884a.362.362,0,0,1-.294.377.208.208,0,0,1-.251,0,1.326,1.326,0,0,1-.209-.168,1.713,1.713,0,0,1-.4-.461q-.147-.25-.315-.5-.753-1.088-1.445-2.241t-1.4-2.283q-1.467-2.388-2.953-4.755t-2.954-4.754l-1.508-2.388q-.21-.335-.44-.67a1.39,1.39,0,0,0-.649-.5c-.024-.012-.05-.02-.074-.031v11.868c0-.1.006-.192.011-.275a.946.946,0,0,1,.356-.67.829.829,0,0,1,.733.44c.182.293.342.538.482.733q.586.965,1.152,1.864t1.152,1.864l6.284,10.054q.376.586.733,1.194t.733,1.194q.25.418.5.775a1.7,1.7,0,0,0,.712.565.928.928,0,0,0,.109.037v-11.8A2.539,2.539,0,0,0,2227.288,907.884Z" fill="#fff"/>
      <path id="路径_530" data-name="路径 530" d="M2214.406,917.058c-.008-.077-.008-.154-.011-.231v.463A.863.863,0,0,0,2214.406,917.058Z" fill="#fff"/>
      <path id="路径_531" data-name="路径 531" d="M2268.07,914.064v3.629c0,.31.006.613.021.908a.8.8,0,0,0,.316.654,1.079,1.079,0,0,0,.655.232c.266.015.555.021.865.021h2.448a5.266,5.266,0,0,1,.675.043,1.6,1.6,0,0,0,.633-.043c.141-.056.281-.1.422-.147a.579.579,0,0,0,.338-.275,2.577,2.577,0,0,0,.19-1.245q-.021-.864-.021-1.456v-8.146a.865.865,0,0,0,.042-.274.481.481,0,0,1,.085-.275.984.984,0,0,1,.97-.591c.225-.012.454-.021.685-.028h-8.324Z" fill="#fff"/>
      <path id="路径_532" data-name="路径 532" d="M2285.586,907.078c.173.005.322,0,.461-.007h-.762Z" fill="#fff"/>
      <path id="路径_533" data-name="路径 533" d="M2284.912,901.965h.334C2285.135,901.963,2285.024,901.963,2284.912,901.965Z" fill="#fff"/>
      <path id="路径_534" data-name="路径 534" d="M2289.216,891.166a4.665,4.665,0,0,0-.064-.8,1.251,1.251,0,0,0-.232-.57.9.9,0,0,0-.633-.295q-.423-.042-.886-.042h-18.192a.239.239,0,0,1-.169.021.236.236,0,0,0-.168.021.981.981,0,0,0-.634.422,2.144,2.144,0,0,0-.189,1.14c.014.534.021,1,.021,1.392v9.512h7.633a1.663,1.663,0,0,1-.458-.1.714.714,0,0,1-.443-.38,3.747,3.747,0,0,1-.19-.633v-.464a1.883,1.883,0,0,1-.021-.507q.021-.294.021-.506V897.35q0-.337-.021-.8a2.372,2.372,0,0,1,.063-.76,1.241,1.241,0,0,1,.422-.633,2.668,2.668,0,0,1,1.372-.232q.95.021,1.625.021h8.146q.591,0,1.414.021a1.912,1.912,0,0,0,1.161-.232.647.647,0,0,0,.232-.317c.042-.126.091-.26.147-.4a2.354,2.354,0,0,0,.021-.549c-.014-.2-.021-.393-.021-.59,0-.254.007-.528.021-.824S2289.216,891.462,2289.216,891.166Z" fill="#fff"/>
      <path id="路径_535" data-name="路径 535" d="M2321.381,905.145h-6.57a1.939,1.939,0,0,0,.065-.556,1.656,1.656,0,0,0-.085-.612v-.718a.819.819,0,0,1-.019-.316.539.539,0,0,0-.065-.319,3.7,3.7,0,0,1-.1-.653,3.182,3.182,0,0,0-.1-.612,1.5,1.5,0,0,0-.085-.465q-.126-.463-.253-.927a6.466,6.466,0,0,0-.339-.93,8.513,8.513,0,0,0-2.68-3.48,7.893,7.893,0,0,0-4.875-1.33.272.272,0,0,1-.192.019.284.284,0,0,0-.188.023.924.924,0,0,1-.339.02.764.764,0,0,0-.38.065c-.309.055-.611.12-.907.188a5.064,5.064,0,0,0-.823.274,6.874,6.874,0,0,0-2.807,2.11,11.053,11.053,0,0,0-1.665,3.253,7.285,7.285,0,0,0-.192.907,7.262,7.262,0,0,1-.189.907,1.254,1.254,0,0,0-.042.316,1.4,1.4,0,0,1-.042.315.814.814,0,0,0-.042.465,1.453,1.453,0,0,1,0,.465,2.55,2.55,0,0,0-.1.781,2.107,2.107,0,0,0,.062.781v.465a1.565,1.565,0,0,1,.043.357,1.367,1.367,0,0,0,.042.358,2.453,2.453,0,0,0,.019.319,1.85,1.85,0,0,1,.023.315,7.318,7.318,0,0,1,.189.931,3.644,3.644,0,0,0,.234.884,14.1,14.1,0,0,0,1.138,2.511,5.9,5.9,0,0,0,1.688,1.88,2.01,2.01,0,0,0,.442.338c.157.085.319.169.488.254a4.177,4.177,0,0,0,.992.461c.351.114.722.228,1.119.339a.816.816,0,0,0,.4.065,1.27,1.27,0,0,1,.4.019,1.6,1.6,0,0,0,.507.085h.478v5.509h-.013a2.616,2.616,0,0,1-.549-.065,1.186,1.186,0,0,0-.4-.019,1.339,1.339,0,0,1-.4-.023h-.461a3.81,3.81,0,0,0-.634-.1,3.949,3.949,0,0,1-.635-.108q-.336-.083-.673-.146c-.228-.042-.452-.091-.676-.149-.309-.111-.628-.225-.95-.335s-.641-.241-.95-.381a12.979,12.979,0,0,1-4.283-2.934,14.782,14.782,0,0,1-2.849-4.367,8.433,8.433,0,0,1-.423-1.246c-.114-.436-.24-.881-.38-1.33a1.006,1.006,0,0,1-.085-.358,1.276,1.276,0,0,0-.042-.319,4.4,4.4,0,0,1-.127-.611,4.946,4.946,0,0,0-.127-.654,1.264,1.264,0,0,1-.019-.4.636.636,0,0,0-.065-.361,1.781,1.781,0,0,1,0-.527,1.6,1.6,0,0,0,0-.527,2.556,2.556,0,0,1,0-1.307.942.942,0,0,0,0-.4,1.03,1.03,0,0,1,0-.4v-.254a1.6,1.6,0,0,0,.065-.569,1.3,1.3,0,0,1,.061-.527,1.128,1.128,0,0,0,.085-.442,1.209,1.209,0,0,1,.085-.446,14.2,14.2,0,0,0,.338-1.415,7.925,7.925,0,0,1,.38-1.369q.338-.717.635-1.434a7.655,7.655,0,0,1,.715-1.353,13.753,13.753,0,0,1,2.914-3.376,15.588,15.588,0,0,1,4.01-2.322,7.382,7.382,0,0,1,1.158-.338c.41-.085.81-.182,1.2-.293a1.041,1.041,0,0,1,.4-.085,2.238,2.238,0,0,0,.4-.042l1.265-.127a.319.319,0,0,1,.234,0,.346.346,0,0,0,.231,0,15.685,15.685,0,0,1,5.19.612,14.166,14.166,0,0,1,3.926,1.919c.368.253.745.543,1.142.865a6.025,6.025,0,0,1,.969.992c.14.143.279.289.422.445s.267.3.381.443c.309.448.618.907.927,1.372a9.079,9.079,0,0,1,.8,1.5c.169.4.316.774.443,1.142s.26.757.4,1.18a8.515,8.515,0,0,1,.211.865c.055.3.127.6.211.908a2.092,2.092,0,0,1,.085.569,1.614,1.614,0,0,0,.084.53,1.282,1.282,0,0,1,.062.527,1.781,1.781,0,0,0,.023.484v.339a3.481,3.481,0,0,1,.1.865A2.919,2.919,0,0,1,2321.381,905.145Z" fill="#fff"/>
      <path id="路径_536" data-name="路径 536" d="M2332.689,894.942a1.421,1.421,0,0,0-.192.761v-6.289h8.97c.188,0,.367,0,.546.006v5.412a4.352,4.352,0,0,0-1.473-.309q-.927-.043-1.942-.042h-4.9a.165.165,0,0,1-.166.061.761.761,0,0,0-.169-.019A1.009,1.009,0,0,0,2332.689,894.942Z" fill="#fff"/>
      <path id="路径_537" data-name="路径 537" d="M2351.282,919a.779.779,0,0,1-.234.3.986.986,0,0,1-.7.188c-.3-.013-.6-.022-.907-.022h-2.323a9.724,9.724,0,0,1-1.18-.062.986.986,0,0,1-.761-.485,2.809,2.809,0,0,1-.377-1.353,8.991,8.991,0,0,0-.212-1.518,2.416,2.416,0,0,0-.023-.316,2.049,2.049,0,0,1-.019-.273,4.417,4.417,0,0,1-.127-1.077,5.927,5.927,0,0,0-.084-1.034,1.213,1.213,0,0,1-.043-.38c-.058-.309-.107-.628-.146-.95a7.012,7.012,0,0,0-.192-.95,8.926,8.926,0,0,0-.8-1.73,2.892,2.892,0,0,0-1.311-1.141,2.414,2.414,0,0,0-.423-.127,3.743,3.743,0,0,1-.461-.124,5.55,5.55,0,0,0-1.753-.254h-5.425c-.225.056-.42.1-.589.127a.656.656,0,0,0-.423.251,1.93,1.93,0,0,0-.295,1.31c.029.589.042,1.126.042,1.6v5.4c0,.224-.007.458-.02.7s-.022.471-.022.7v.614a1.322,1.322,0,0,1-.085.485.761.761,0,0,1-.508.507,1.357,1.357,0,0,1-.5.082h-2.533c-.449,0-.927.009-1.434.022a1.781,1.781,0,0,1-1.142-.273.856.856,0,0,1-.335-.784V903.076h6.56V895.7c0,.036,0,.069,0,.1q.019.531.02,1.034v4.94a1.35,1.35,0,0,0,.211.8.837.837,0,0,0,.55.338,5.888,5.888,0,0,0,.842.127,7.4,7.4,0,0,0,.973.023c.338-.016.63-.023.884-.023h2.491c.2,0,.407.007.635.023a1.533,1.533,0,0,0,.588-.065h.55a2.747,2.747,0,0,1,.654-.085,2.139,2.139,0,0,0,.611-.084,5.23,5.23,0,0,0,1.268-.547,3.1,3.1,0,0,0,.927-.888,2.859,2.859,0,0,0,.381-.845q.126-.464.254-1.054a4.312,4.312,0,0,0,.019-1.135h6.592a3.861,3.861,0,0,1-.113.628,2.578,2.578,0,0,0-.085.611,1.988,1.988,0,0,1-.085.573c-.139.419-.279.822-.419,1.2a5.278,5.278,0,0,1-.55,1.073,2.651,2.651,0,0,1-.211.277,2.439,2.439,0,0,0-.211.273c-.085.114-.176.228-.274.338a2.07,2.07,0,0,1-.315.3c-.169.14-.338.28-.508.423s-.351.28-.549.419c-.114.085-.225.179-.338.277a.953.953,0,0,0-.254.358.389.389,0,0,0,.084.422,2.429,2.429,0,0,0,.3.254c.283.224.563.449.846.673a3.336,3.336,0,0,1,.716.8,6.938,6.938,0,0,1,.8,1.476,16.518,16.518,0,0,1,.55,1.73,4.836,4.836,0,0,1,.1.8,4.457,4.457,0,0,0,.107.8c0,.169.006.331.019.488s.023.315.023.484a1.085,1.085,0,0,1,.02.358,1.312,1.312,0,0,0,.022.4.993.993,0,0,1,.02.338,1.3,1.3,0,0,0,.019.381,4.311,4.311,0,0,1,.085.888,4.5,4.5,0,0,0,.085.884l.126.761c.059.254.114.5.17.758s.113.494.169.719A.6.6,0,0,1,2351.282,919Z" fill="#fff"/>
      <path id="路径_538" data-name="路径 538" d="M2176.076,897.307a1.136,1.136,0,0,1-.187.649.936.936,0,0,1-.588.313,5.09,5.09,0,0,1-.839.065h-3.393a2.025,2.025,0,0,1-.626-.084,1.006,1.006,0,0,1-.629-.672,6.406,6.406,0,0,0-.336-.923,5.412,5.412,0,0,0-.462-.878,2.635,2.635,0,0,0-.626-.713,10.5,10.5,0,0,0-1.133-.71,6.821,6.821,0,0,0-1.236-.359,10.846,10.846,0,0,0-1.508-.187,9.219,9.219,0,0,0-1.526.042,4.67,4.67,0,0,0-1.343.336,4.326,4.326,0,0,0-1.485.984,3.359,3.359,0,0,0-.736,1.7,1.71,1.71,0,0,0-.042.652,2.4,2.4,0,0,0,.126.565,3.722,3.722,0,0,0,.206.439h-6.626c-.01-.126-.023-.255-.03-.4a4.932,4.932,0,0,1,.042-1.175,2.333,2.333,0,0,0,.042-.5c.084-.309.152-.6.21-.881a4.7,4.7,0,0,1,.252-.839,8.224,8.224,0,0,1,1.611-2.492,12.628,12.628,0,0,1,2.282-1.863,8.063,8.063,0,0,1,1.8-.8c.639-.193,1.324-.377,2.05-.542a5.853,5.853,0,0,1,.82-.107,5.7,5.7,0,0,0,.817-.1.885.885,0,0,1,.4,0c.18.026.3.013.355-.042q8.128-.126,11.185,4.816a6.143,6.143,0,0,1,.648,1.382c.155.477.3.994.443,1.552A2.772,2.772,0,0,1,2176.076,897.307Z" fill="#fff"/>
      <path id="路径_539" data-name="路径 539" d="M2187.574,889.408v29.827h-4.649a7.321,7.321,0,0,1-1.026-.062.863.863,0,0,1-.649-.4,1.139,1.139,0,0,1-.168-.649v-27.67a.909.909,0,0,1,.168-.587.974.974,0,0,1,.626-.42.256.256,0,0,1,.168-.019.236.236,0,0,0,.168-.023Z" fill="#fff"/>
      <path id="路径_540" data-name="路径 540" d="M2214.385,904.993v11.646c0,.063.007.125.01.188V901.372c-.007.2-.01.427-.01.689Z" fill="#fff"/>
      <path id="路径_541" data-name="路径 541" d="M2214.385,916.639c0,.062.007.126.01.187v.462a.77.77,0,0,1-.052.187v.462a1.708,1.708,0,0,1-.21.965.821.821,0,0,1-.565.291,6.84,6.84,0,0,1-.816.042h-3.225a1.876,1.876,0,0,1-.587-.081.877.877,0,0,1-.607-.756,10.98,10.98,0,0,1-.065-1.255V890.667a1.632,1.632,0,0,1,.168-.8.961.961,0,0,1,.587-.42,1.027,1.027,0,0,0,.188-.019,1.076,1.076,0,0,1,.19-.023h3.393q.459,0,.9-.019a1.581,1.581,0,0,1,.7.116v11.866c-.007.2-.01.429-.01.691Z" fill="#fff"/>
      <path id="路径_542" data-name="路径 542" d="M2227.393,906.606c-.015-.237-.022-.468-.022-.691v-13.95c0-.112-.007-.225-.016-.337v15.714c.006-.03.009-.057.016-.087A3.334,3.334,0,0,0,2227.393,906.606Z" fill="#fff"/>
      <path id="路径_543" data-name="路径 543" d="M2233.465,918.063a1.178,1.178,0,0,1-.145.713.713.713,0,0,1-.4.313c-.155.042-.342.091-.565.146h-4.506a1.377,1.377,0,0,1-.5-.088v-11.8c.006-.029.01-.058.016-.087a3.266,3.266,0,0,0,.023-.649c-.016-.239-.023-.468-.023-.691V891.965c0-.113-.006-.226-.016-.336v-.348a.608.608,0,0,1,.016-.113v-.459a1.508,1.508,0,0,1,.252-.923.788.788,0,0,1,.565-.336,7.545,7.545,0,0,1,.816-.042h3.228a1.874,1.874,0,0,1,.585.084.825.825,0,0,1,.587.733c.026.352.042.762.042,1.236v25.682Q2233.446,917.6,2233.465,918.063Z" fill="#fff"/>
      <path id="路径_544" data-name="路径 544" d="M2263.215,912.122c-.028,0-.055,0-.083.005h.346A1.14,1.14,0,0,0,2263.215,912.122Z" fill="#fff"/>
      <path id="路径_545" data-name="路径 545" d="M2237.7,899.178c.076-.008.153-.008.23-.012h-.462A.822.822,0,0,0,2237.7,899.178Z" fill="#fff"/>
      <path id="路径_546" data-name="路径 546" d="M2177.144,910.439v-1.013h-.075c.021.248.034.513.034.8A.584.584,0,0,1,2177.144,910.439Z" fill="#fff"/>
      <path id="路径_547" data-name="路径 547" d="M2177.144,910.438a.542.542,0,0,1-.042.21v.756c-.055.306-.1.6-.145.878a6.06,6.06,0,0,1-.19.839,13.659,13.659,0,0,1-.543,1.381,7.828,7.828,0,0,1-.713,1.214,2.8,2.8,0,0,1-.336.358,1.469,1.469,0,0,0-.294.355,4.753,4.753,0,0,1-.458.481,5.66,5.66,0,0,1-.545.439c-.142.113-.288.226-.439.336s-.317.226-.485.336a7.975,7.975,0,0,1-1.484.755c-.52.194-1.056.391-1.614.584a5.027,5.027,0,0,1-1.214.275c-.42.042-.839.1-1.259.187a1.669,1.669,0,0,1-.565.065,1.279,1.279,0,0,0-.523.061h-.335a2.057,2.057,0,0,1-.23-.019.367.367,0,0,0-.232.019,6.058,6.058,0,0,1-1.424,0h-.419a1.707,1.707,0,0,0-.607-.061,1.523,1.523,0,0,1-.565-.065,3.264,3.264,0,0,1-.378-.019c-.113-.017-.239-.036-.377-.065-.336-.084-.685-.152-1.046-.21a5.1,5.1,0,0,1-1.007-.252,14.75,14.75,0,0,1-3.6-1.694,8.738,8.738,0,0,1-2.595-2.7,8.082,8.082,0,0,1-1.049-2.389,2.144,2.144,0,0,1-.1-.5,3.065,3.065,0,0,0-.107-.543,5.664,5.664,0,0,1-.126-.816,1,1,0,0,1,.168-.736.837.837,0,0,1,.607-.4,5.861,5.861,0,0,1,.9-.062h3.353a1.671,1.671,0,0,1,.669.126.888.888,0,0,1,.545.691,4.486,4.486,0,0,0,.294.985,4.532,4.532,0,0,0,.419.92,8.312,8.312,0,0,0,.543.8,3.937,3.937,0,0,0,.461.462,5.837,5.837,0,0,0,.5.374,8.392,8.392,0,0,0,2.263.965,2.057,2.057,0,0,0,.565.084,2.561,2.561,0,0,1,.606.084h.21a5.1,5.1,0,0,0,1.843,0,1.434,1.434,0,0,1,.42-.042c.139-.029.284-.048.439-.065a1.521,1.521,0,0,0,.439-.1,6.563,6.563,0,0,0,2.263-1.007,3.462,3.462,0,0,0,1.172-2.092,1.489,1.489,0,0,0,.022-.671,2.845,2.845,0,0,0-.148-.588,3.461,3.461,0,0,0-.514-.929h6.934c.019.248.032.513.032.8A.551.551,0,0,1,2177.144,910.438Z" fill="#fff"/>
      <path id="路径_548" data-name="路径 548" d="M2277.271,907.057c-.3,0-.589.006-.877.014h8.891c-.428-.009-.795-.014-1.092-.014Z" fill="#fff"/>
      <path id="路径_549" data-name="路径 549" d="M2276.384,901.992h7.471c.225,0,.486-.006.781-.021.092,0,.184-.005.276-.006H2275.7c.017,0,.031,0,.048.006C2275.948,901.986,2276.159,901.992,2276.384,901.992Z" fill="#fff"/>
      <path id="路径_550" data-name="路径 550" d="M2287.232,904.82c0,.227.006.471.022.738a2.513,2.513,0,0,1-.065.738,1.115,1.115,0,0,1-.465.634,1.618,1.618,0,0,1-.676.14h-.765c-.426-.006-.793-.013-1.089-.013h-6.924c-.3,0-.589.007-.875.013h-8.326v-5.106h7.633a.28.28,0,0,0,.049.007c.2.016.407.022.634.022h7.471c.224,0,.484-.006.78-.022.091,0,.186,0,.277-.007h.335c.091,0,.182,0,.276.007.293.016.559.035.8.065a1.073,1.073,0,0,1,.527.169,1.234,1.234,0,0,1,.4,1.119C2287.238,903.87,2287.232,904.371,2287.232,904.82Z" fill="#fff"/>
      <path id="路径_551" data-name="路径 551" d="M2321.381,905.145l0,.013v.55a4.358,4.358,0,0,0-.084.884,5.3,5.3,0,0,1-.085.93,4.976,4.976,0,0,0-.127.589,4.713,4.713,0,0,1-.126.592q-.21.761-.4,1.476a9.858,9.858,0,0,1-.485,1.4,14.052,14.052,0,0,1-3.422,4.917,14.62,14.62,0,0,1-5.317,3.015,5.523,5.523,0,0,1-.927.254c-.312.058-.621.113-.93.169a1.207,1.207,0,0,1-.442.084,2.1,2.1,0,0,0-.443.043l-1.4.126a2.336,2.336,0,0,1-.576.023V914.7h.407a1.126,1.126,0,0,1,.381-.02.787.787,0,0,0,.38-.065c.28-.055.563-.1.846-.146a3.055,3.055,0,0,0,.8-.234,7.467,7.467,0,0,0,2.849-1.857,9.593,9.593,0,0,0,1.753-2.953,4.54,4.54,0,0,0,.315-1.015c.072-.364.163-.732.273-1.1l.127-1.015a1.41,1.41,0,0,0,.042-.358V905.2c.007-.016.013-.036.02-.055Z" fill="#fff"/>
      <path id="路径_552" data-name="路径 552" d="M2332.5,889.414v13.662h-6.56V891.651c0-.309-.01-.634-.023-.969a1.082,1.082,0,0,1,.823-1.226.313.313,0,0,1,.192-.02.288.288,0,0,0,.189-.022Z" fill="#fff"/>
      <path id="路径_553" data-name="路径 553" d="M2350.963,898.214c0,.056-.009.1-.013.153h-6.592v0a7.529,7.529,0,0,0-.146-1.015.64.64,0,0,1-.085-.3.469.469,0,0,0-.084-.254,3.345,3.345,0,0,0-1.858-1.9c-.055-.026-.113-.045-.172-.068V889.42c.254,0,.5.007.742.016a5.973,5.973,0,0,1,1.161.147,1.147,1.147,0,0,0,.442.084,1.207,1.207,0,0,1,.446.085c.2.058.393.114.588.169a4.756,4.756,0,0,1,.592.211,9.58,9.58,0,0,1,1.942,1.139,6.49,6.49,0,0,1,1.476,1.561,2.161,2.161,0,0,1,.277.445,1.973,1.973,0,0,0,.273.443,5.246,5.246,0,0,1,.507,1.222q.167.634.378,1.4a.91.91,0,0,1,.022.338.57.57,0,0,0,.062.335v.38A2.411,2.411,0,0,1,2350.963,898.214Z" fill="#fff"/>
      <g id="组_83" data-name="组 83">
        <path id="路径_554" data-name="路径 554" d="M2247.573,912.676a4.76,4.76,0,0,0,.572-.635q.465-.593.995-1.185t.994-1.185a.952.952,0,0,1,.233-.3,1.861,1.861,0,0,0,.276-.3q.465-.593.931-1.143t.931-1.143l.212-.212a1.693,1.693,0,0,0,.212-.254q.973-1.227,2.011-2.413t2.011-2.414q.3-.381.614-.74c.212-.24.416-.487.614-.741a1.7,1.7,0,0,0,.148-.17,1.569,1.569,0,0,1,.148-.169q.3-.381.593-.72c.2-.225.395-.466.593-.72.056-.056.119-.127.19-.211s.134-.155.19-.212a11.306,11.306,0,0,1,.72-.889,10.947,10.947,0,0,0,.72-.889,7.708,7.708,0,0,1,.529-.635,2.042,2.042,0,0,0,.205-.27H2252.4l.152.016a.487.487,0,0,1,.466.381.364.364,0,0,1,.021.317.733.733,0,0,1-.148.233,2.174,2.174,0,0,1-.318.529,5.884,5.884,0,0,1-.4.445,19.084,19.084,0,0,1-1.249,1.524,19.019,19.019,0,0,0-1.249,1.524,2.144,2.144,0,0,1-.3.318,2.7,2.7,0,0,0-.339.36,8.3,8.3,0,0,1-.762.973,10.947,10.947,0,0,0-.762.932,1.083,1.083,0,0,1-.212.233,1.075,1.075,0,0,0-.212.233,5.632,5.632,0,0,1-.529.613,5.763,5.763,0,0,0-.529.614,22.544,22.544,0,0,1-1.63,2.011q-.868.953-1.672,1.969a1,1,0,0,0-.149.191.945.945,0,0,1-.148.19c-.226.254-.438.5-.635.741s-.409.5-.635.783a1.254,1.254,0,0,1-.233.254,1.87,1.87,0,0,0-.275.3,11.522,11.522,0,0,1-.868,1.079,11.7,11.7,0,0,0-.868,1.08q-.3.339-.614.677a2.82,2.82,0,0,0-.368.511h9.945a1.024,1.024,0,0,0-.241-.045,1.593,1.593,0,0,1-.381-.212c-.114-.085-.142-.239-.085-.465A1.337,1.337,0,0,1,2247.573,912.676Z" fill="#fff"/>
        <path id="路径_555" data-name="路径 555" d="M2262.583,893.2v.507a3.284,3.284,0,0,1-.13.975,2.4,2.4,0,0,1-.238.449h-9.82c-.21-.023-.426-.046-.652-.068h-9.609c-.2,0-.439.006-.72.019s-.559.023-.827.023a6.354,6.354,0,0,1-.761-.042,1.1,1.1,0,0,1-.53-.171.871.871,0,0,1-.339-.591,6.173,6.173,0,0,1-.106-.952c-.013-.355-.013-.714,0-1.082s.022-.678.022-.929.007-.51.02-.762a1.262,1.262,0,0,1,.19-.636.762.762,0,0,1,.594-.339.243.243,0,0,1,.168-.023.225.225,0,0,0,.171-.019h20.662a8.86,8.86,0,0,1,1.12.061.76.76,0,0,1,.655.53,2.306,2.306,0,0,1,.13.891v1.016a4.529,4.529,0,0,0,.042.614A1.125,1.125,0,0,1,2262.583,893.2Z" fill="#fff"/>
        <path id="路径_556" data-name="路径 556" d="M2263.006,915.853v2.285a4.668,4.668,0,0,1-.065.762.849.849,0,0,1-.274.552,1.426,1.426,0,0,1-.762.232c-.31.013-.636.02-.975.02h-21.253c-.281,0-.578.009-.888.022a1.012,1.012,0,0,1-.719-.19,1.172,1.172,0,0,1-.468-.72,1.6,1.6,0,0,1-.042-.636,5.31,5.31,0,0,0,.042-.678c0-.478-.007-1.017-.02-1.607a3.77,3.77,0,0,1,.191-1.44,2.5,2.5,0,0,1,.161-.294h9.942l.142.039h.549a.78.78,0,0,0,.319.023,2.671,2.671,0,0,1,.359-.023h12.066c.284,0,.536.006.762.023a.858.858,0,0,1,.868.781A5.242,5.242,0,0,1,2263.006,915.853Z" fill="#fff"/>
      </g>
    </g>
  </g>
</svg>
