<svg xmlns="http://www.w3.org/2000/svg" width="199.252" height="227.299" viewBox="0 0 199.252 227.299">
  <g id="组_109" data-name="组 109" transform="translate(-754.918 -370.133)">
    <g id="组_1" data-name="组 1">
      <path id="路径_1" data-name="路径 1" d="M864.006,503.952V488.433a22.626,22.626,0,0,0,22.6-22.6h15.52A38.164,38.164,0,0,1,864.006,503.952Z" fill="#cdc6a5"/>
    </g>
    <g id="组_2" data-name="组 2">
      <path id="路径_2" data-name="路径 2" d="M849.721,392.253a22.626,22.626,0,0,0-31.962,0l-10.974-10.974a38.165,38.165,0,0,1,53.91,0Z" fill="#c08e4e"/>
    </g>
    <g id="组_3" data-name="组 3">
      <path id="路径_3" data-name="路径 3" d="M876.552,403.4A38,38,0,0,1,849.6,392.253l10.974-10.973a22.627,22.627,0,0,0,31.962,0l10.973,10.974A38,38,0,0,1,876.552,403.4Z" fill="#c4b496"/>
    </g>
    <g id="组_4" data-name="组 4">
      <path id="路径_4" data-name="路径 4" d="M829.25,446.9H813.731V407.617h41.221v15.519h-25.7Z" fill="#c4924f"/>
    </g>
    <g id="组_5" data-name="组 5">
      <rect id="矩形_1" data-name="矩形 1" width="16.452" height="41.428" transform="translate(813.719 463.352) rotate(-90)" fill="#f6c567"/>
    </g>
    <g id="组_6" data-name="组 6">
      <path id="路径_5" data-name="路径 5" d="M811.943,570.489a4.248,4.248,0,0,1,1.575,1.005l-.39,1.408h-.237a2.966,2.966,0,0,0-1.171-1.269,3.5,3.5,0,0,0-1.73-.418,2.528,2.528,0,0,0-1.492.39,1.186,1.186,0,0,0-.558,1.018,1.166,1.166,0,0,0,.641.977,7.5,7.5,0,0,0,2.12.85,7.113,7.113,0,0,1,2.72,1.214,2.365,2.365,0,0,1,.795,1.855,2.667,2.667,0,0,1-1.227,2.342,5.548,5.548,0,0,1-3.18.837,6.578,6.578,0,0,1-2.343-.418,5.66,5.66,0,0,1-1.883-1.088l.5-1.631h.237a2.508,2.508,0,0,0,1.2,1.534,4.055,4.055,0,0,0,2.064.515,3.246,3.246,0,0,0,1.855-.473,1.449,1.449,0,0,0,.7-1.27,1.252,1.252,0,0,0-.586-1.017,7.464,7.464,0,0,0-2.189-.866,7.259,7.259,0,0,1-2.65-1.212,2.214,2.214,0,0,1-.865-1.772,2.427,2.427,0,0,1,1.13-2.12,5.123,5.123,0,0,1,2.929-.753A6,6,0,0,1,811.943,570.489Z" fill="#1a1311"/>
      <path id="路径_6" data-name="路径 6" d="M821.577,573.809a4.168,4.168,0,0,1,.823,3.25h-5.188a2.768,2.768,0,0,0,.6,1.924,2.159,2.159,0,0,0,1.715.683,2.748,2.748,0,0,0,1.214-.265,2.842,2.842,0,0,0,1.018-.879l.167-.027.307.935a4.243,4.243,0,0,1-1.381.933,4.5,4.5,0,0,1-1.743.322,3.928,3.928,0,0,1-2.859-1,3.872,3.872,0,0,1-1.046-2.944,4.26,4.26,0,0,1,.962-2.9,3.4,3.4,0,0,1,2.72-1.1A3.518,3.518,0,0,1,821.577,573.809Zm-3.863.558a3.006,3.006,0,0,0-.474,1.757H820.5a3.332,3.332,0,0,0-.405-1.729,1.355,1.355,0,0,0-1.213-.614A1.394,1.394,0,0,0,817.714,574.367Z" fill="#1a1311"/>
      <path id="路径_7" data-name="路径 7" d="M823.849,572.931h1.981v1.1a3.426,3.426,0,0,1,1.059-.948,2.736,2.736,0,0,1,1.367-.349,2.515,2.515,0,0,1,1.869.656,2.646,2.646,0,0,1,.628,1.91v5.188h-1.981V575.72a2.327,2.327,0,0,0-.334-1.409,1.082,1.082,0,0,0-.907-.432,1.828,1.828,0,0,0-1.032.293,1.732,1.732,0,0,0-.669.864v5.453h-1.981Z" fill="#1a1311"/>
      <path id="路径_8" data-name="路径 8" d="M836.873,572.986a3.619,3.619,0,0,1,1.381.851l-.335,1.241-.223-.014a2.188,2.188,0,0,0-2.064-1.325,1.756,1.756,0,0,0-1.074.293.941.941,0,0,0-.4.753.809.809,0,0,0,.557.837,9.365,9.365,0,0,0,1.646.433,4.694,4.694,0,0,1,1.911.738,1.833,1.833,0,0,1,.6,1.52,1.985,1.985,0,0,1-.99,1.73,4.723,4.723,0,0,1-2.635.642,6.44,6.44,0,0,1-1.828-.28,3.748,3.748,0,0,1-1.478-.753l.335-1.241.223.014a2.062,2.062,0,0,0,1.074.949,3.683,3.683,0,0,0,1.464.307,2.588,2.588,0,0,0,1.367-.293.961.961,0,0,0,.446-.851.823.823,0,0,0-.446-.725,4.806,4.806,0,0,0-1.465-.475,5.127,5.127,0,0,1-2.133-.851,1.718,1.718,0,0,1-.684-1.45,2,2,0,0,1,.851-1.674,3.851,3.851,0,0,1,2.329-.627A4.952,4.952,0,0,1,836.873,572.986Z" fill="#1a1311"/>
      <path id="路径_9" data-name="路径 9" d="M846.146,573.809a4.172,4.172,0,0,1,.823,3.25h-5.188a2.768,2.768,0,0,0,.6,1.924,2.161,2.161,0,0,0,1.716.683,2.746,2.746,0,0,0,1.213-.265,2.834,2.834,0,0,0,1.018-.879l.167-.027.308.935a4.254,4.254,0,0,1-1.381.933,4.5,4.5,0,0,1-1.743.322,3.931,3.931,0,0,1-2.86-1,3.872,3.872,0,0,1-1.046-2.944,4.256,4.256,0,0,1,.963-2.9,3.4,3.4,0,0,1,2.719-1.1A3.521,3.521,0,0,1,846.146,573.809Zm-3.863.558a3.006,3.006,0,0,0-.475,1.757h3.264a3.343,3.343,0,0,0-.4-1.729,1.356,1.356,0,0,0-1.214-.614A1.391,1.391,0,0,0,842.283,574.367Z" fill="#1a1311"/>
      <path id="路径_10" data-name="路径 10" d="M852.335,580.489V570.322h5.021a3.676,3.676,0,0,1,2.371.711,2.313,2.313,0,0,1,.878,1.9,2.2,2.2,0,0,1-.389,1.3,2.885,2.885,0,0,1-1.228.934,2.755,2.755,0,0,1,1.576.906,2.22,2.22,0,0,1,.474,1.4,2.812,2.812,0,0,1-.906,2.245,3.5,3.5,0,0,1-2.329.781Zm5.747-8.633a1.584,1.584,0,0,0-1.145-.418h-2.566v3.278h2.65a1.5,1.5,0,0,0,1.046-.391,1.464,1.464,0,0,0,.433-1.158A1.788,1.788,0,0,0,858.082,571.856Zm.376,4.379a1.788,1.788,0,0,0-1.172-.4h-2.915v3.543h2.915a1.668,1.668,0,0,0,1.172-.433,1.914,1.914,0,0,0,.474-1.492A1.482,1.482,0,0,0,858.458,576.235Z" fill="#1a1311"/>
      <path id="路径_11" data-name="路径 11" d="M868.455,573.809a4.176,4.176,0,0,1,.823,3.25H864.09a2.768,2.768,0,0,0,.6,1.924,2.161,2.161,0,0,0,1.716.683,2.743,2.743,0,0,0,1.213-.265,2.837,2.837,0,0,0,1.019-.879l.167-.027.306.935a4.232,4.232,0,0,1-1.381.933,4.5,4.5,0,0,1-1.743.322,3.924,3.924,0,0,1-2.858-1,3.868,3.868,0,0,1-1.046-2.944,4.255,4.255,0,0,1,.962-2.9,3.4,3.4,0,0,1,2.719-1.1A3.519,3.519,0,0,1,868.455,573.809Zm-3.863.558a3,3,0,0,0-.474,1.757h3.263a3.322,3.322,0,0,0-.4-1.729,1.353,1.353,0,0,0-1.213-.614A1.393,1.393,0,0,0,864.592,574.367Z" fill="#1a1311"/>
      <path id="路径_12" data-name="路径 12" d="M874.855,569.974a2.992,2.992,0,0,1,.725.335l-.362,1.017-.168-.013a.831.831,0,0,0-.349-.377,1.386,1.386,0,0,0-.641-.125.876.876,0,0,0-.837.488,2.923,2.923,0,0,0-.084,1.632h1.855v1.031h-1.757v6.527h-1.98v-6.527h-1.284v-1.031h1.284a3,3,0,0,1,.739-2.274A2.67,2.67,0,0,1,874,569.89,3.719,3.719,0,0,1,874.855,569.974Z" fill="#1a1311"/>
      <path id="路径_13" data-name="路径 13" d="M882.552,573.837a4.43,4.43,0,0,1,0,5.718,3.74,3.74,0,0,1-2.859,1.13,3.781,3.781,0,0,1-2.887-1.117,4.451,4.451,0,0,1,0-5.731,4.3,4.3,0,0,1,5.746,0Zm-4.253.642a4.957,4.957,0,0,0-.015,4.434,1.7,1.7,0,0,0,2.79,0,4.929,4.929,0,0,0-.015-4.421,1.7,1.7,0,0,0-2.76-.013Z" fill="#1a1311"/>
      <path id="路径_14" data-name="路径 14" d="M886.957,580.489h-1.981v-7.558h1.981v1.157a2.962,2.962,0,0,1,.85-1.019,1.688,1.688,0,0,1,.893-.278,2.192,2.192,0,0,1,.53.056,2.258,2.258,0,0,1,.5.2l-.515,1.422-.224-.014a.607.607,0,0,0-.209-.251,1.053,1.053,0,0,0-.46-.084,1.208,1.208,0,0,0-.768.252,2.4,2.4,0,0,0-.6.809Z" fill="#1a1311"/>
      <path id="路径_15" data-name="路径 15" d="M896.286,573.809a4.172,4.172,0,0,1,.823,3.25h-5.188a2.768,2.768,0,0,0,.6,1.924,2.161,2.161,0,0,0,1.716.683,2.743,2.743,0,0,0,1.213-.265,2.837,2.837,0,0,0,1.019-.879l.167-.027.306.935a4.232,4.232,0,0,1-1.381.933,4.5,4.5,0,0,1-1.743.322,3.924,3.924,0,0,1-2.858-1,3.872,3.872,0,0,1-1.046-2.944,4.255,4.255,0,0,1,.962-2.9,3.4,3.4,0,0,1,2.72-1.1A3.518,3.518,0,0,1,896.286,573.809Zm-3.863.558a3,3,0,0,0-.474,1.757h3.263a3.322,3.322,0,0,0-.4-1.729,1.352,1.352,0,0,0-1.212-.614A1.393,1.393,0,0,0,892.423,574.367Z" fill="#1a1311"/>
      <path id="路径_16" data-name="路径 16" d="M815.589,587.222a4.248,4.248,0,0,1,1.575,1.005l-.39,1.408h-.237a2.975,2.975,0,0,0-1.171-1.27,3.5,3.5,0,0,0-1.73-.418,2.521,2.521,0,0,0-1.492.391,1.186,1.186,0,0,0-.558,1.017,1.165,1.165,0,0,0,.641.977,7.522,7.522,0,0,0,2.12.851,7.1,7.1,0,0,1,2.72,1.214,2.362,2.362,0,0,1,.795,1.854,2.669,2.669,0,0,1-1.227,2.343,5.556,5.556,0,0,1-3.18.837,6.6,6.6,0,0,1-2.343-.418,5.685,5.685,0,0,1-1.883-1.088l.5-1.632h.237a2.5,2.5,0,0,0,1.2,1.534,4.046,4.046,0,0,0,2.064.516,3.248,3.248,0,0,0,1.855-.474,1.447,1.447,0,0,0,.7-1.269,1.252,1.252,0,0,0-.586-1.018,7.5,7.5,0,0,0-2.189-.865,7.241,7.241,0,0,1-2.65-1.213,2.214,2.214,0,0,1-.865-1.772,2.427,2.427,0,0,1,1.13-2.12,5.123,5.123,0,0,1,2.929-.753A5.973,5.973,0,0,1,815.589,587.222Z" fill="#1a1311"/>
      <path id="路径_17" data-name="路径 17" d="M825.223,590.541a4.169,4.169,0,0,1,.823,3.25h-5.188a2.771,2.771,0,0,0,.6,1.925,2.158,2.158,0,0,0,1.715.682,2.76,2.76,0,0,0,1.214-.264,2.862,2.862,0,0,0,1.018-.879l.167-.027.307.934a4.247,4.247,0,0,1-1.381.934,4.5,4.5,0,0,1-1.743.321,3.928,3.928,0,0,1-2.859-1,3.868,3.868,0,0,1-1.046-2.943,4.264,4.264,0,0,1,.962-2.9,3.4,3.4,0,0,1,2.72-1.1A3.518,3.518,0,0,1,825.223,590.541Zm-3.863.559a2.994,2.994,0,0,0-.474,1.756h3.264a3.335,3.335,0,0,0-.405-1.729,1.356,1.356,0,0,0-1.213-.613A1.392,1.392,0,0,0,821.36,591.1Z" fill="#1a1311"/>
      <path id="路径_18" data-name="路径 18" d="M827.495,589.663h1.98v1.1a3.444,3.444,0,0,1,1.06-.949,2.735,2.735,0,0,1,1.367-.348,2.515,2.515,0,0,1,1.869.655,2.648,2.648,0,0,1,.628,1.91v5.189h-1.981v-4.77a2.328,2.328,0,0,0-.334-1.409,1.081,1.081,0,0,0-.907-.432,1.828,1.828,0,0,0-1.032.293,1.742,1.742,0,0,0-.67.865v5.453h-1.98Z" fill="#1a1311"/>
      <path id="路径_19" data-name="路径 19" d="M840.519,589.719a3.617,3.617,0,0,1,1.381.85l-.335,1.242-.223-.014a2.184,2.184,0,0,0-2.064-1.325,1.749,1.749,0,0,0-1.074.293.941.941,0,0,0-.4.753.809.809,0,0,0,.557.837,9.38,9.38,0,0,0,1.646.432,4.7,4.7,0,0,1,1.911.738,1.835,1.835,0,0,1,.6,1.521,1.983,1.983,0,0,1-.99,1.729,4.72,4.72,0,0,1-2.635.642,6.473,6.473,0,0,1-1.828-.279,3.775,3.775,0,0,1-1.478-.753l.335-1.241.223.013a2.053,2.053,0,0,0,1.074.949,3.683,3.683,0,0,0,1.464.307,2.588,2.588,0,0,0,1.367-.293.958.958,0,0,0,.446-.85.825.825,0,0,0-.446-.726,4.806,4.806,0,0,0-1.465-.475,5.141,5.141,0,0,1-2.133-.85,1.719,1.719,0,0,1-.684-1.45,2,2,0,0,1,.851-1.674,3.851,3.851,0,0,1,2.329-.627A4.954,4.954,0,0,1,840.519,589.719Z" fill="#1a1311"/>
      <path id="路径_20" data-name="路径 20" d="M849.792,590.541a4.173,4.173,0,0,1,.823,3.25h-5.188a2.771,2.771,0,0,0,.6,1.925,2.161,2.161,0,0,0,1.716.682,2.759,2.759,0,0,0,1.213-.264,2.853,2.853,0,0,0,1.018-.879l.167-.027.308.934a4.258,4.258,0,0,1-1.381.934,4.5,4.5,0,0,1-1.743.321,3.931,3.931,0,0,1-2.86-1,3.868,3.868,0,0,1-1.046-2.943,4.26,4.26,0,0,1,.963-2.9,3.4,3.4,0,0,1,2.719-1.1A3.52,3.52,0,0,1,849.792,590.541Zm-3.863.559a3,3,0,0,0-.475,1.756h3.264a3.335,3.335,0,0,0-.405-1.729,1.354,1.354,0,0,0-1.213-.613A1.389,1.389,0,0,0,845.929,591.1Z" fill="#1a1311"/>
      <path id="路径_21" data-name="路径 21" d="M858.017,592.563v4.659h-2.036V587.055h7.365V588.2h-5.329v3.222H862.7v1.143Z" fill="#1a1311"/>
      <path id="路径_22" data-name="路径 22" d="M870.958,590.569a4.427,4.427,0,0,1,0,5.718,3.739,3.739,0,0,1-2.859,1.13,3.78,3.78,0,0,1-2.886-1.116,4.449,4.449,0,0,1,0-5.732,4.3,4.3,0,0,1,5.745,0Zm-4.253.642a4.967,4.967,0,0,0-.015,4.435,1.7,1.7,0,0,0,2.79,0,4.933,4.933,0,0,0-.014-4.421,1.705,1.705,0,0,0-2.761-.014Z" fill="#1a1311"/>
      <path id="路径_23" data-name="路径 23" d="M875.363,597.222h-1.98v-7.559h1.98v1.157a2.949,2.949,0,0,1,.851-1.018,1.68,1.68,0,0,1,.892-.279,2.2,2.2,0,0,1,.531.056,2.323,2.323,0,0,1,.5.2l-.515,1.422-.224-.013a.594.594,0,0,0-.209-.251,1.035,1.035,0,0,0-.46-.084,1.205,1.205,0,0,0-.767.252,2.4,2.4,0,0,0-.6.808Z" fill="#1a1311"/>
      <path id="路径_24" data-name="路径 24" d="M883.716,589.732a4,4,0,0,1,1.338.837l-.333,1.242-.224-.014a2.581,2.581,0,0,0-.809-1.019,2.063,2.063,0,0,0-2.719.5,3.494,3.494,0,0,0-.642,2.245,2.987,2.987,0,0,0,.684,2.121,2.33,2.33,0,0,0,2.844.46,2.686,2.686,0,0,0,.921-.823l.167-.028.307.934a3.6,3.6,0,0,1-1.269.893,4.28,4.28,0,0,1-1.758.335,3.869,3.869,0,0,1-2.817-1.046,3.806,3.806,0,0,1-1.087-2.873,4.044,4.044,0,0,1,1.06-2.929,3.677,3.677,0,0,1,2.817-1.1A4.316,4.316,0,0,1,883.716,589.732Z" fill="#1a1311"/>
      <path id="路径_25" data-name="路径 25" d="M892.639,590.541a4.174,4.174,0,0,1,.824,3.25h-5.189a2.771,2.771,0,0,0,.6,1.925,2.158,2.158,0,0,0,1.716.682,2.759,2.759,0,0,0,1.213-.264,2.861,2.861,0,0,0,1.018-.879l.167-.027.307.934a4.236,4.236,0,0,1-1.381.934,4.5,4.5,0,0,1-1.743.321,3.928,3.928,0,0,1-2.859-1,3.868,3.868,0,0,1-1.046-2.943,4.264,4.264,0,0,1,.962-2.9,3.4,3.4,0,0,1,2.72-1.1A3.514,3.514,0,0,1,892.639,590.541Zm-3.863.559a2.986,2.986,0,0,0-.473,1.756h3.262a3.316,3.316,0,0,0-.4-1.729,1.356,1.356,0,0,0-1.213-.613A1.392,1.392,0,0,0,888.776,591.1Z" fill="#1a1311"/>
    </g>
    <g id="组_7" data-name="组 7">
      <circle id="椭圆_1" data-name="椭圆 1" cx="12.613" cy="12.613" r="12.613" transform="translate(863.379 424.2)" fill="#cdc6a5"/>
    </g>
    <path id="路径_26" data-name="路径 26" d="M830.182,527.636c0,.028,0,.055,0,.082v-.346A1.155,1.155,0,0,0,830.182,527.636Z"/>
    <g id="组_9" data-name="组 9">
      <path id="路径_27" data-name="路径 27" d="M756.014,535.3c.084.308.153.594.209.859a3.832,3.832,0,0,0,.252.775,6.383,6.383,0,0,0,1.256,1.927,9.79,9.79,0,0,0,1.76,1.466,11.019,11.019,0,0,0,1.634.817q.879.357,1.843.691c.223.057.425.112.607.168s.384.112.608.167a.656.656,0,0,0,.293.084.963.963,0,0,1,.335.084,12.11,12.11,0,0,0,1.32.356q.691.147,1.361.356.335.084.608.147t.565.146q.755.252,1.529.482a6.106,6.106,0,0,1,1.4.607,4.886,4.886,0,0,1,.461.252,3.421,3.421,0,0,1,.911.83H779.9a5.594,5.594,0,0,0-.134-.872.416.416,0,0,1-.042-.189.76.76,0,0,0-.041-.23c-.113-.279-.217-.558-.315-.838a3.778,3.778,0,0,0-.356-.754,8.261,8.261,0,0,0-1.529-1.843,15.634,15.634,0,0,0-1.948-1.424,5.856,5.856,0,0,0-1.612-.713q-.9-.25-1.739-.544a1.122,1.122,0,0,0-.419-.084,1.1,1.1,0,0,1-.419-.084q-1.173-.334-2.367-.607t-2.325-.649a9.468,9.468,0,0,0-.984-.273,4.6,4.6,0,0,1-.943-.314,10.734,10.734,0,0,1-1.445-.691,2.037,2.037,0,0,1-.738-.8h-6.626A5.567,5.567,0,0,0,756.014,535.3Z"/>
      <path id="路径_28" data-name="路径 28" d="M790.448,543.3a1.073,1.073,0,0,1,.4-.565,1.576,1.576,0,0,1,.67-.251,4.257,4.257,0,0,1,.859-.042q.461.021.963.021h8.169c.2,0,.44.007.733.021s.587.02.88.02a6.85,6.85,0,0,0,.8-.041,1.436,1.436,0,0,0,.566-.168,1.013,1.013,0,0,0,.335-.545,1.366,1.366,0,0,0,.084-.5v-.587c0-.223.006-.488.02-.8s.014-.607,0-.9a4.912,4.912,0,0,0-.1-.817.744.744,0,0,0-.293-.5,1.1,1.1,0,0,0-.524-.167q-.357-.042-.775-.063t-.859,0c-.293.014-.538.021-.733.021h-9.468q-.376,0-.712-.021a1.164,1.164,0,0,1-.586-.189.664.664,0,0,1-.293-.356,5.509,5.509,0,0,1-.168-.565v7.435A2.249,2.249,0,0,1,790.448,543.3Z"/>
      <path id="路径_29" data-name="路径 29" d="M806.409,550.467a.758.758,0,0,0-.461-.461,1.246,1.246,0,0,0-.566-.126h-12.5c-.14,0-.294.008-.461.021a1.573,1.573,0,0,1-.461-.021h-.419a1.564,1.564,0,0,0-.4-.1.511.511,0,0,1-.314-.147.876.876,0,0,1-.356-.607,5.8,5.8,0,0,1-.063-.9v7.205h15.06a.977.977,0,0,0,.649-.209.808.808,0,0,0,.377-.649q.042-.441.042-.943V551.6c0-.223-.007-.433-.021-.628A1.709,1.709,0,0,0,806.409,550.467Z"/>
      <path id="路径_30" data-name="路径 30" d="M790.469,531.8a.878.878,0,0,1,.356-.607,1.276,1.276,0,0,1,.544-.189,7.026,7.026,0,0,1,.818-.083q.439-.021.879,0c.294.014.551.021.775.021H805.11a1.1,1.1,0,0,0,.628-.168,1,1,0,0,0,.419-.67,3.478,3.478,0,0,1,.042-.629,2.9,2.9,0,0,0,.021-.607q-.021-.315-.021-.649c0-.2.007-.405.021-.629a3.071,3.071,0,0,0-.021-.628v-.461a1.025,1.025,0,0,1-.1-.335.679.679,0,0,0-.1-.293.878.878,0,0,0-.67-.336q-.462-.041-.964-.041h-13.95v7.205A5.814,5.814,0,0,1,790.469,531.8Z"/>
      <path id="路径_31" data-name="路径 31" d="M830.119,543.974a.362.362,0,0,1-.293.377.209.209,0,0,1-.251,0,1.379,1.379,0,0,1-.21-.168,1.749,1.749,0,0,1-.4-.461c-.1-.167-.2-.335-.314-.5q-.754-1.089-1.445-2.242t-1.4-2.283q-1.467-2.387-2.953-4.754t-2.953-4.755L818.39,526.8c-.141-.223-.287-.446-.44-.67a1.4,1.4,0,0,0-.649-.5c-.024-.012-.05-.02-.075-.03v11.867c0-.1.007-.192.011-.275a.947.947,0,0,1,.357-.67.83.83,0,0,1,.733.44q.271.44.482.733.585.965,1.151,1.864t1.153,1.864l6.283,10.054q.378.588.733,1.194t.733,1.194q.252.42.5.775a1.718,1.718,0,0,0,.712.566c.033.016.074.023.109.037V543.432A2.554,2.554,0,0,0,830.119,543.974Z"/>
      <path id="路径_32" data-name="路径 32" d="M817.237,553.148c-.008-.077-.008-.154-.011-.231v.463A.823.823,0,0,0,817.237,553.148Z"/>
      <path id="路径_33" data-name="路径 33" d="M870.9,550.154v3.63q0,.465.021.907a.8.8,0,0,0,.317.654,1.068,1.068,0,0,0,.654.233q.4.021.865.021h2.448a5.3,5.3,0,0,1,.676.042,1.583,1.583,0,0,0,.633-.042c.14-.056.281-.106.422-.148a.581.581,0,0,0,.337-.274,2.579,2.579,0,0,0,.19-1.245q-.021-.866-.021-1.457v-8.146a.859.859,0,0,0,.043-.274.478.478,0,0,1,.084-.274.982.982,0,0,1,.971-.591c.225-.013.454-.021.684-.028H870.9Z"/>
      <path id="路径_34" data-name="路径 34" d="M888.417,543.169c.173,0,.323,0,.461-.007h-.762Z"/>
      <path id="路径_35" data-name="路径 35" d="M887.744,538.055h.334C887.966,538.053,887.855,538.053,887.744,538.055Z"/>
      <path id="路径_36" data-name="路径 36" d="M892.047,527.256a4.67,4.67,0,0,0-.063-.8,1.253,1.253,0,0,0-.233-.569.9.9,0,0,0-.633-.3c-.281-.027-.577-.042-.886-.042H872.041a.235.235,0,0,1-.169.021.245.245,0,0,0-.169.021.983.983,0,0,0-.633.422,2.147,2.147,0,0,0-.19,1.14q.021.8.021,1.393v9.511h7.633a1.624,1.624,0,0,1-.458-.1.716.716,0,0,1-.443-.38,3.857,3.857,0,0,1-.19-.633v-.464a1.935,1.935,0,0,1-.021-.507c.014-.2.021-.365.021-.506V533.44q0-.337-.021-.8a2.409,2.409,0,0,1,.064-.76,1.245,1.245,0,0,1,.422-.633,2.661,2.661,0,0,1,1.371-.232q.949.021,1.625.021h8.146q.591,0,1.414.021a1.9,1.9,0,0,0,1.161-.232.643.643,0,0,0,.232-.317c.042-.126.091-.259.148-.4a2.332,2.332,0,0,0,.021-.548c-.015-.2-.021-.394-.021-.591,0-.253.006-.528.021-.823S892.047,527.552,892.047,527.256Z"/>
      <path id="路径_37" data-name="路径 37" d="M924.212,541.235h-6.57a1.9,1.9,0,0,0,.065-.556,1.671,1.671,0,0,0-.084-.611v-.719a.819.819,0,0,1-.02-.316.527.527,0,0,0-.065-.318,3.723,3.723,0,0,1-.1-.654,3.17,3.17,0,0,0-.1-.612,1.527,1.527,0,0,0-.084-.465q-.127-.464-.254-.927a6.45,6.45,0,0,0-.338-.93,8.529,8.529,0,0,0-2.68-3.48,7.9,7.9,0,0,0-4.875-1.33.278.278,0,0,1-.192.02.286.286,0,0,0-.189.022.92.92,0,0,1-.338.02.766.766,0,0,0-.381.065c-.309.055-.611.12-.907.189a4.993,4.993,0,0,0-.823.273,6.881,6.881,0,0,0-2.807,2.111,11.043,11.043,0,0,0-1.665,3.252,7.671,7.671,0,0,0-.192.907,7.452,7.452,0,0,1-.188.908,1.209,1.209,0,0,0-.043.315,1.411,1.411,0,0,1-.042.316.833.833,0,0,0-.042.465,1.393,1.393,0,0,1,0,.465,2.556,2.556,0,0,0-.1.78,2.091,2.091,0,0,0,.062.781v.465a1.561,1.561,0,0,1,.042.358,1.409,1.409,0,0,0,.042.357,2.426,2.426,0,0,0,.02.319,1.985,1.985,0,0,1,.022.316,7.139,7.139,0,0,1,.189.93,3.62,3.62,0,0,0,.234.884,14.115,14.115,0,0,0,1.139,2.511,5.882,5.882,0,0,0,1.688,1.88,1.957,1.957,0,0,0,.442.338c.156.085.319.169.488.254a4.194,4.194,0,0,0,.992.462c.351.114.722.227,1.118.338a.818.818,0,0,0,.4.065,1.278,1.278,0,0,1,.4.02,1.627,1.627,0,0,0,.507.084h.478V556.3h-.013a2.57,2.57,0,0,1-.55-.065,1.214,1.214,0,0,0-.4-.019,1.33,1.33,0,0,1-.4-.023h-.462a3.8,3.8,0,0,0-.634-.1,4.026,4.026,0,0,1-.634-.107c-.225-.056-.449-.1-.673-.147s-.453-.091-.677-.149c-.309-.111-.628-.225-.95-.335s-.64-.241-.949-.381a12.982,12.982,0,0,1-4.284-2.933,14.808,14.808,0,0,1-2.849-4.368,8.327,8.327,0,0,1-.422-1.246c-.114-.436-.241-.881-.381-1.33a1.022,1.022,0,0,1-.084-.358,1.223,1.223,0,0,0-.043-.318,4.709,4.709,0,0,1-.127-.612,5.147,5.147,0,0,0-.126-.654,1.27,1.27,0,0,1-.02-.4.636.636,0,0,0-.065-.361,1.782,1.782,0,0,1,0-.526,1.607,1.607,0,0,0,0-.527,2.56,2.56,0,0,1,0-1.308.944.944,0,0,0,0-.4,1.035,1.035,0,0,1,0-.4v-.254a1.594,1.594,0,0,0,.065-.569,1.317,1.317,0,0,1,.062-.527,1.147,1.147,0,0,0,.084-.442,1.228,1.228,0,0,1,.085-.446,13.7,13.7,0,0,0,.338-1.414,8,8,0,0,1,.381-1.37q.336-.717.634-1.434a7.715,7.715,0,0,1,.715-1.353,13.734,13.734,0,0,1,2.915-3.376,15.566,15.566,0,0,1,4.01-2.322,7.4,7.4,0,0,1,1.157-.338c.41-.085.81-.182,1.2-.293a1.052,1.052,0,0,1,.4-.084,2.236,2.236,0,0,0,.4-.043l1.265-.126a.31.31,0,0,1,.234,0,.346.346,0,0,0,.231,0,15.666,15.666,0,0,1,5.191.611A14.182,14.182,0,0,1,918,527.361c.368.253.745.543,1.142.865a5.988,5.988,0,0,1,.969.992c.14.143.28.289.423.445s.267.3.381.443q.462.673.926,1.372a9.177,9.177,0,0,1,.8,1.5c.169.4.315.774.442,1.142s.26.758.4,1.18a8.216,8.216,0,0,1,.211.866c.056.295.127.6.212.907a2.126,2.126,0,0,1,.084.569,1.592,1.592,0,0,0,.085.53,1.315,1.315,0,0,1,.062.527,1.793,1.793,0,0,0,.022.485v.338a3.433,3.433,0,0,1,.1.865A2.881,2.881,0,0,1,924.212,541.235Z"/>
      <path id="路径_38" data-name="路径 38" d="M935.52,531.033a1.418,1.418,0,0,0-.192.761V525.5h8.97c.189,0,.368,0,.547.006v5.412a4.356,4.356,0,0,0-1.474-.309q-.927-.043-1.941-.042h-4.9a.169.169,0,0,1-.166.062.778.778,0,0,0-.169-.02A1.015,1.015,0,0,0,935.52,531.033Z"/>
      <path id="路径_39" data-name="路径 39" d="M954.114,555.093a.781.781,0,0,1-.235.3.986.986,0,0,1-.7.189c-.3-.013-.6-.023-.907-.023h-2.322a9.725,9.725,0,0,1-1.181-.062.987.987,0,0,1-.761-.484,2.823,2.823,0,0,1-.377-1.353,8.97,8.97,0,0,0-.211-1.519,2.407,2.407,0,0,0-.023-.316,2.066,2.066,0,0,1-.02-.273,4.462,4.462,0,0,1-.127-1.076,5.924,5.924,0,0,0-.084-1.035,1.252,1.252,0,0,1-.042-.38c-.059-.309-.108-.628-.147-.95a6.959,6.959,0,0,0-.192-.949,8.936,8.936,0,0,0-.8-1.731,2.894,2.894,0,0,0-1.31-1.141,2.435,2.435,0,0,0-.423-.127,3.545,3.545,0,0,1-.462-.124,5.55,5.55,0,0,0-1.753-.253h-5.425c-.224.055-.419.1-.588.126a.651.651,0,0,0-.423.251,1.932,1.932,0,0,0-.3,1.311c.029.588.042,1.125.042,1.6v5.4c0,.224-.006.459-.019.7s-.023.472-.023.7v.615a1.3,1.3,0,0,1-.085.484.761.761,0,0,1-.507.508,1.384,1.384,0,0,1-.5.081h-2.534c-.448,0-.927.01-1.434.023a1.771,1.771,0,0,1-1.141-.274.853.853,0,0,1-.336-.783V539.167h6.56v-7.373a.921.921,0,0,0,0,.1q.02.531.019,1.034v4.94a1.349,1.349,0,0,0,.212.8.836.836,0,0,0,.549.339,6.1,6.1,0,0,0,.842.126,7.24,7.24,0,0,0,.973.023c.338-.016.631-.023.884-.023H941.3c.2,0,.406.007.634.023a1.517,1.517,0,0,0,.589-.065h.549a2.755,2.755,0,0,1,.654-.084,2.1,2.1,0,0,0,.611-.085,5.273,5.273,0,0,0,1.269-.546,3.146,3.146,0,0,0,.927-.888,2.85,2.85,0,0,0,.38-.846q.127-.464.254-1.054a4.266,4.266,0,0,0,.019-1.135h6.593a3.753,3.753,0,0,1-.114.628,2.63,2.63,0,0,0-.085.611,2.023,2.023,0,0,1-.084.573c-.14.419-.28.823-.42,1.2a5.323,5.323,0,0,1-.549,1.073,2.676,2.676,0,0,1-.212.277,2.64,2.64,0,0,0-.211.273c-.085.114-.176.228-.273.338a2.031,2.031,0,0,1-.316.3c-.169.14-.338.28-.507.423s-.351.28-.55.42c-.114.084-.224.178-.338.276a.975.975,0,0,0-.254.358.39.39,0,0,0,.085.423,2.423,2.423,0,0,0,.3.253l.845.674a3.289,3.289,0,0,1,.716.8,6.9,6.9,0,0,1,.8,1.476,16.341,16.341,0,0,1,.55,1.731,4.81,4.81,0,0,1,.1.8,4.529,4.529,0,0,0,.107.8c0,.169.007.332.02.488s.023.315.023.484a1.09,1.09,0,0,1,.019.358,1.306,1.306,0,0,0,.023.4.994.994,0,0,1,.019.338,1.294,1.294,0,0,0,.02.381,4.4,4.4,0,0,1,.084.888,4.567,4.567,0,0,0,.085.884l.127.761c.058.254.114.505.169.758s.114.495.169.719A.6.6,0,0,1,954.114,555.093Z"/>
      <path id="路径_40" data-name="路径 40" d="M778.907,533.4a1.13,1.13,0,0,1-.187.649.937.937,0,0,1-.587.313,5.1,5.1,0,0,1-.84.065H773.9a2.028,2.028,0,0,1-.627-.084,1.008,1.008,0,0,1-.629-.672,6.407,6.407,0,0,0-.336-.923,5.43,5.43,0,0,0-.461-.878,2.687,2.687,0,0,0-.626-.713,10.621,10.621,0,0,0-1.133-.71,6.907,6.907,0,0,0-1.237-.359,10.98,10.98,0,0,0-1.507-.187,9.229,9.229,0,0,0-1.527.042,4.678,4.678,0,0,0-1.343.336,4.348,4.348,0,0,0-1.485.984,3.36,3.36,0,0,0-.736,1.7,1.758,1.758,0,0,0-.042.652,2.418,2.418,0,0,0,.126.565,3.891,3.891,0,0,0,.207.439h-6.627c-.01-.126-.023-.255-.029-.4a4.928,4.928,0,0,1,.042-1.175,2.326,2.326,0,0,0,.042-.5c.084-.31.151-.6.21-.882a4.624,4.624,0,0,1,.251-.839,8.275,8.275,0,0,1,1.611-2.492,12.589,12.589,0,0,1,2.282-1.862,8.026,8.026,0,0,1,1.8-.8c.639-.193,1.323-.377,2.049-.542a5.7,5.7,0,0,1,.82-.106,5.71,5.71,0,0,0,.817-.1.886.886,0,0,1,.4,0c.181.026.3.013.355-.042q8.13-.126,11.185,4.816a6.1,6.1,0,0,1,.649,1.382c.155.478.3.994.442,1.553A2.742,2.742,0,0,1,778.907,533.4Z" fill="#c4b496"/>
      <path id="路径_41" data-name="路径 41" d="M790.405,525.5v29.826h-4.648a7.332,7.332,0,0,1-1.027-.062.861.861,0,0,1-.648-.4,1.137,1.137,0,0,1-.168-.648v-27.67a.911.911,0,0,1,.168-.588.964.964,0,0,1,.626-.419.255.255,0,0,1,.168-.02.232.232,0,0,0,.167-.022Z" fill="#f6c567"/>
      <path id="路径_42" data-name="路径 42" d="M817.217,541.083v11.646c0,.063.006.126.009.188V537.462c-.006.2-.009.427-.009.689Z"/>
      <path id="路径_43" data-name="路径 43" d="M817.217,552.729c0,.062.006.126.009.188v.461a.742.742,0,0,1-.052.188v.461a1.717,1.717,0,0,1-.209.965.823.823,0,0,1-.565.291,6.857,6.857,0,0,1-.817.042h-3.225a1.884,1.884,0,0,1-.587-.081.877.877,0,0,1-.607-.755,11,11,0,0,1-.065-1.256V526.757a1.645,1.645,0,0,1,.168-.8.955.955,0,0,1,.588-.419,1.02,1.02,0,0,0,.187-.02,1.067,1.067,0,0,1,.191-.022h3.392q.461,0,.9-.02a1.58,1.58,0,0,1,.7.116v11.866q-.009.3-.009.691Z" fill="#c08e4e"/>
      <path id="路径_44" data-name="路径 44" d="M830.224,542.7c-.015-.237-.021-.467-.021-.691v-13.95c0-.112-.008-.224-.017-.337v15.714c.007-.029.009-.057.017-.087A3.316,3.316,0,0,0,830.224,542.7Z"/>
      <path id="路径_45" data-name="路径 45" d="M836.3,554.153a1.187,1.187,0,0,1-.145.713.71.71,0,0,1-.4.313q-.231.063-.564.146h-4.507a1.4,1.4,0,0,1-.5-.087v-11.8c.007-.029.01-.058.017-.087a3.249,3.249,0,0,0,.022-.649c-.016-.239-.022-.468-.022-.691V528.055c0-.113-.007-.226-.017-.336v-.348a.72.72,0,0,1,.017-.113V526.8a1.508,1.508,0,0,1,.251-.923.791.791,0,0,1,.565-.335,7.551,7.551,0,0,1,.817-.042h3.228a1.9,1.9,0,0,1,.584.083.828.828,0,0,1,.588.733c.025.352.041.762.041,1.237v25.681C836.277,553.54,836.284,553.846,836.3,554.153Z" fill="#f6c567"/>
      <path id="路径_46" data-name="路径 46" d="M866.046,548.213l-.082,0h.346A1.152,1.152,0,0,0,866.046,548.213Z"/>
      <path id="路径_47" data-name="路径 47" d="M840.534,535.268c.077-.008.154-.008.231-.011H840.3A.861.861,0,0,0,840.534,535.268Z"/>
      <path id="路径_48" data-name="路径 48" d="M779.976,546.529v-1.013H779.9c.021.248.034.514.034.8A.562.562,0,0,1,779.976,546.529Z"/>
      <path id="路径_49" data-name="路径 49" d="M779.976,546.529a.538.538,0,0,1-.042.209v.756c-.055.306-.1.6-.146.878a5.893,5.893,0,0,1-.19.839,14,14,0,0,1-.542,1.382,7.83,7.83,0,0,1-.714,1.213,2.8,2.8,0,0,1-.335.359,1.43,1.43,0,0,0-.294.355,5.057,5.057,0,0,1-.458.481,5.686,5.686,0,0,1-.546.439c-.142.113-.287.226-.439.335s-.316.226-.484.336a7.955,7.955,0,0,1-1.485.755c-.52.194-1.056.391-1.614.585a5.017,5.017,0,0,1-1.214.274c-.419.042-.839.1-1.259.187a1.64,1.64,0,0,1-.565.065,1.291,1.291,0,0,0-.522.061h-.336a1.823,1.823,0,0,1-.229-.019.378.378,0,0,0-.233.019,6.048,6.048,0,0,1-1.423,0h-.42a1.73,1.73,0,0,0-.607-.061,1.5,1.5,0,0,1-.565-.065,3.233,3.233,0,0,1-.377-.019c-.113-.016-.239-.036-.378-.065-.336-.084-.684-.151-1.046-.21a5.045,5.045,0,0,1-1.007-.251,14.784,14.784,0,0,1-3.6-1.7,8.726,8.726,0,0,1-2.595-2.7,8.087,8.087,0,0,1-1.05-2.388,2.151,2.151,0,0,1-.1-.5,3.044,3.044,0,0,0-.107-.542,5.815,5.815,0,0,1-.125-.817,1,1,0,0,1,.167-.736.839.839,0,0,1,.607-.4,5.866,5.866,0,0,1,.9-.061h3.354a1.665,1.665,0,0,1,.668.126.883.883,0,0,1,.545.69,7.384,7.384,0,0,0,.714,1.9,8.377,8.377,0,0,0,.542.8,3.885,3.885,0,0,0,.462.462,5.644,5.644,0,0,0,.5.374,8.371,8.371,0,0,0,2.263.965,2.064,2.064,0,0,0,.565.084,2.567,2.567,0,0,1,.607.084h.21a4,4,0,0,0,.92.084,4.04,4.04,0,0,0,.923-.084,1.423,1.423,0,0,1,.419-.042,4.365,4.365,0,0,1,.439-.064,1.547,1.547,0,0,0,.439-.1,6.535,6.535,0,0,0,2.263-1.007,3.458,3.458,0,0,0,1.172-2.091,1.5,1.5,0,0,0,.023-.672,2.834,2.834,0,0,0-.149-.587,3.47,3.47,0,0,0-.513-.93H779.9c.02.249.033.513.033.8A.554.554,0,0,1,779.976,546.529Z" fill="#c08e4e"/>
      <path id="路径_50" data-name="路径 50" d="M880.1,543.148q-.445,0-.877.014h8.891c-.428-.009-.794-.014-1.092-.014Z"/>
      <path id="路径_51" data-name="路径 51" d="M879.216,538.083h7.471c.224,0,.485-.007.781-.021.092-.005.184-.005.276-.007h-9.21l.049.007Q878.877,538.083,879.216,538.083Z"/>
      <path id="路径_52" data-name="路径 52" d="M890.063,540.91c0,.228.007.471.023.738a2.558,2.558,0,0,1-.065.738,1.127,1.127,0,0,1-.465.635,1.63,1.63,0,0,1-.677.139h-.764c-.426-.006-.794-.013-1.09-.013H880.1c-.3,0-.589.007-.875.013H870.9v-5.106h7.633a.2.2,0,0,0,.048.007c.2.016.407.023.635.023h7.47c.224,0,.485-.007.781-.023.091,0,.185,0,.276-.007h.335c.091,0,.182,0,.277.007.292.016.559.036.8.065a1.077,1.077,0,0,1,.527.169,1.237,1.237,0,0,1,.4,1.119C890.07,539.96,890.063,540.461,890.063,540.91Z" fill="#c4b496"/>
      <path id="路径_53" data-name="路径 53" d="M924.212,541.235l0,.013v.55a4.281,4.281,0,0,0-.085.884,5.293,5.293,0,0,1-.084.931,4.579,4.579,0,0,0-.127.588,4.844,4.844,0,0,1-.127.592q-.21.76-.4,1.477a9.873,9.873,0,0,1-.485,1.395,14.026,14.026,0,0,1-3.421,4.917,14.609,14.609,0,0,1-5.318,3.015,5.434,5.434,0,0,1-.926.254c-.313.058-.622.114-.931.169a1.2,1.2,0,0,1-.442.085,2.167,2.167,0,0,0-.442.042l-1.4.127a2.355,2.355,0,0,1-.576.022v-5.509h.406a1.1,1.1,0,0,1,.381-.019.8.8,0,0,0,.38-.065c.28-.056.563-.1.846-.147a3.05,3.05,0,0,0,.8-.234,7.462,7.462,0,0,0,2.849-1.857,9.56,9.56,0,0,0,1.753-2.953,4.582,4.582,0,0,0,.316-1.015,10.969,10.969,0,0,1,.273-1.1l.127-1.015a1.409,1.409,0,0,0,.042-.357v-.739c.006-.016.013-.035.019-.055Z" fill="#c4b496"/>
      <path id="路径_54" data-name="路径 54" d="M935.328,525.5v13.663h-6.56V527.741c0-.309-.009-.634-.022-.969a1.08,1.08,0,0,1,.822-1.226.315.315,0,0,1,.192-.019.286.286,0,0,0,.189-.023Z" fill="#f6c567"/>
      <path id="路径_55" data-name="路径 55" d="M953.795,534.3c0,.056-.01.1-.013.153h-6.593v0a7.569,7.569,0,0,0-.146-1.015.647.647,0,0,1-.084-.3.464.464,0,0,0-.085-.253,3.34,3.34,0,0,0-1.857-1.9c-.055-.026-.114-.045-.172-.068V525.51c.253,0,.5.007.741.017a5.958,5.958,0,0,1,1.161.146,1.15,1.15,0,0,0,.442.084,1.224,1.224,0,0,1,.446.085c.2.059.394.114.589.169a4.721,4.721,0,0,1,.592.212,9.55,9.55,0,0,1,1.941,1.138,6.512,6.512,0,0,1,1.477,1.561,2.113,2.113,0,0,1,.276.445,2.006,2.006,0,0,0,.273.443,5.2,5.2,0,0,1,.508,1.223c.11.422.237.888.377,1.395a.915.915,0,0,1,.023.338.551.551,0,0,0,.062.335v.381A2.458,2.458,0,0,1,953.795,534.3Z" fill="#c08e4e"/>
      <g id="组_8" data-name="组 8">
        <path id="路径_56" data-name="路径 56" d="M850.405,548.767a4.816,4.816,0,0,0,.571-.635q.465-.593.995-1.186t.995-1.185a.939.939,0,0,1,.233-.3,1.864,1.864,0,0,0,.275-.3q.465-.593.931-1.143t.932-1.143l.211-.212a1.7,1.7,0,0,0,.212-.254q.973-1.227,2.011-2.413t2.011-2.413q.3-.381.614-.741t.614-.741a1.51,1.51,0,0,0,.148-.17,1.6,1.6,0,0,1,.149-.169c.2-.254.394-.493.592-.72s.4-.465.593-.719c.056-.057.12-.127.19-.212s.134-.155.191-.212a10.831,10.831,0,0,1,.72-.889,10.911,10.911,0,0,0,.719-.889,8.144,8.144,0,0,1,.53-.635,2.156,2.156,0,0,0,.205-.27h-9.82l.152.016a.487.487,0,0,1,.466.381.367.367,0,0,1,.021.318.726.726,0,0,1-.148.232,2.171,2.171,0,0,1-.318.53q-.191.232-.4.444a18.482,18.482,0,0,1-1.249,1.524,19.011,19.011,0,0,0-1.249,1.525,2.091,2.091,0,0,1-.3.317,2.835,2.835,0,0,0-.339.36,8.321,8.321,0,0,1-.762.974,11.3,11.3,0,0,0-.762.931,1.081,1.081,0,0,1-.212.233,1.1,1.1,0,0,0-.211.233,5.88,5.88,0,0,1-.529.614,5.656,5.656,0,0,0-.53.614,22.7,22.7,0,0,1-1.63,2.011q-.868.953-1.672,1.968a.985.985,0,0,0-.148.191.954.954,0,0,1-.148.19c-.227.254-.439.5-.635.741s-.41.5-.636.784a1.247,1.247,0,0,1-.233.253,1.823,1.823,0,0,0-.274.3,11.531,11.531,0,0,1-.869,1.079,11.7,11.7,0,0,0-.868,1.08q-.3.339-.613.677a2.871,2.871,0,0,0-.368.511h9.944a1.029,1.029,0,0,0-.241-.045,1.635,1.635,0,0,1-.381-.212c-.113-.084-.142-.239-.085-.465A1.333,1.333,0,0,1,850.405,548.767Z"/>
        <path id="路径_57" data-name="路径 57" d="M865.414,529.292v.507a3.322,3.322,0,0,1-.129.975,2.424,2.424,0,0,1-.239.449h-9.819c-.21-.023-.426-.045-.652-.068h-9.61c-.2,0-.439.006-.72.019s-.558.023-.826.023a6.358,6.358,0,0,1-.762-.042,1.1,1.1,0,0,1-.529-.171.871.871,0,0,1-.339-.591,6.2,6.2,0,0,1-.107-.952c-.013-.355-.013-.713,0-1.081s.023-.678.023-.93.006-.51.019-.762a1.264,1.264,0,0,1,.191-.636.763.763,0,0,1,.594-.339.234.234,0,0,1,.167-.022.229.229,0,0,0,.171-.02h20.662a8.859,8.859,0,0,1,1.121.062.759.759,0,0,1,.655.529,2.33,2.33,0,0,1,.129.891v1.017a4.525,4.525,0,0,0,.042.613A1.1,1.1,0,0,1,865.414,529.292Z" fill="#c08e4e"/>
        <path id="路径_58" data-name="路径 58" d="M865.837,551.943v2.285a4.661,4.661,0,0,1-.065.762.85.85,0,0,1-.274.552,1.426,1.426,0,0,1-.762.232c-.31.013-.636.02-.975.02H842.509c-.281,0-.578.009-.888.022a1.014,1.014,0,0,1-.72-.19,1.177,1.177,0,0,1-.468-.72,1.6,1.6,0,0,1-.042-.636,5.322,5.322,0,0,0,.042-.678c0-.477-.007-1.016-.019-1.607a3.75,3.75,0,0,1,.19-1.44,2.571,2.571,0,0,1,.161-.294h9.943l.142.039h.548a.766.766,0,0,0,.32.023,2.836,2.836,0,0,1,.358-.023h12.066c.284,0,.536.007.762.023a.858.858,0,0,1,.868.781A5.237,5.237,0,0,1,865.837,551.943Z" fill="#f6c567"/>
      </g>
    </g>
  </g>
</svg>
