<svg xmlns="http://www.w3.org/2000/svg" viewBox="412 297 177.286 171.855">
  <path d="M37.082,3.008C42.3,5.281,45.406,14.843,47.313,19.655c10.37,27.207,10.825,57.571-1.465,89.426A115.018,115.018,0,0,1,28.43,135.807c-.139.177-.291.354-.442.531-.644.758-1.3,1.49-2.008,2.185-2.652-1.149-4.534-4.08-6.265-6.29-.24-.278-.467-.568-.695-.872a92.761,92.761,0,0,1-7.856-11.987c-.114-.2-.227-.417-.354-.619A83.755,83.755,0,0,1,0,79.171V76.279c-.013-.973-.013-1.945-.025-2.918A73.337,73.337,0,0,1,1.552,57.333c.063-.278.126-.556.189-.846,3.473-15.713,11.292-31.5,22.95-42.755a17.166,17.166,0,0,0,1.263-1.44,20.357,20.357,0,0,1,2.539-2.463c.657-.568,1.276-1.162,1.907-1.756A58.043,58.043,0,0,1,37.082,3.008Zm0,0" transform="translate(412.028, 303.777)" fill="#f39f72"/>
  <path d="M56.51,8.112q1.061.947,2.084,1.933c.24.227.467.442.72.669,5.583,5.343,8.8,12.9,9.814,20.487.038.278.076.556.114.846A108.335,108.335,0,0,1,65.718,77.53c-.076.24-.152.48-.227.733a94.505,94.505,0,0,1-6.9,16.42c-.1.189-.2.392-.316.594A90.766,90.766,0,0,1,49.2,109.259l-.417.53c-2,2.539-4.08,4.977-6.29,7.326-.4.429-.8.872-1.187,1.314a73.25,73.25,0,0,1-5.621,5.583c-.417.379-.821.758-1.225,1.149-1.68,1.566-3.423,3.006-5.242,4.408-.695.53-1.377,1.086-2.059,1.642a90.94,90.94,0,0,1-7.566,5.558c-.632.417-1.25.834-1.882,1.25-.4.278-.808.543-1.213.808-.177.126-.366.253-.556.379a12.945,12.945,0,0,1-2.905,1.5,12.18,12.18,0,0,1,1.743-3.145c10.572-15.5,17.014-34.659,19.616-53.175.038-.316.088-.632.139-.96,3.751-26.562-2.956-54.7-17.519-77.1-.227-.3-.227-.3-.467-.606a1.318,1.318,0,0,1-.379-1.112A35.752,35.752,0,0,1,56.51,8.112Zm0,0" transform="translate(441.203, 297.018)" fill="#f39f72"/>
  <path d="M129.488,42.291c-2.236,11.039-8.639,21.333-15.94,29.733-.265.3-.265.3-.53.619-.48.556-.973,1.111-1.465,1.667-.24.278-.493.543-.733.834a42.108,42.108,0,0,1-4.1,4.118c-.657.556-1.276,1.137-1.907,1.718a64.189,64.189,0,0,1-5.216,4.193c-.278.227-.568.442-.859.682a2.654,2.654,0,0,1-2.551.177,14.213,14.213,0,0,1-1.705-.846c-.328-.177-.657-.341-1-.53-.164-.088-.341-.189-.518-.278A120.528,120.528,0,0,0,46.34,70.028c-.227-.025-.442-.051-.682-.063-1.377-.126-2.766-.189-4.156-.227l-.707-.025a117.4,117.4,0,0,0-17.62,1,26.732,26.732,0,0,1-3.89.164A23.19,23.19,0,0,1,21.874,69a36.556,36.556,0,0,0,4.825-4.13c.152-.152.3-.3.467-.455a58.572,58.572,0,0,0,5.216-5.684c.53-.669,1.1-1.314,1.68-1.958,1.351-1.516,2.6-3.12,3.84-4.724.328-.442.657-.872,1-1.3,2.4-3.12,4.724-6.277,6.922-9.549.821-1.238,1.693-2.45,2.577-3.663a4.528,4.528,0,0,0,.758-1.175,3.879,3.879,0,0,1,2.791-2.1c.682-.164,1.351-.316,2.034-.455.354-.076.72-.164,1.1-.24,4.168-.935,8.387-1.591,12.618-2.147.278-.038.556-.076.834-.126A104.185,104.185,0,0,1,129.488,42.291Zm0,0" transform="translate(455.162, 365.135)" fill="#67be91"/>
  <path d="M104.968,21.052c3.461,4.484,3.739,13.515,3.764,18.933v.9c.013.96.013,1.92.013,2.892v.985a87.664,87.664,0,0,1-.935,14.323c-.076.518-.152,1.048-.227,1.566a19.669,19.669,0,0,1-.909,4.433c-1.768-.568-3.486-1.213-5.216-1.92a125.035,125.035,0,0,0-44.334-9.511c-.265-.013-.518-.013-.8-.013a115.275,115.275,0,0,0-25.678,2.3,14,14,0,0,1,1.276-4.13,106.4,106.4,0,0,0,4.913-16.584l.253-1.061c.392-1.705.733-3.385,1-5.115.076-.467.076-.467.152-.947.1-.594.177-1.175.24-1.768a5.469,5.469,0,0,1,.707-2.135A12.358,12.358,0,0,1,42.61,22.77c.278-.1.543-.189.834-.291C59.813,16.783,88.889,12.4,104.968,21.052Zm0,0" transform="translate(480.542, 333.186)" fill="#67be91"/>
  <path d="M50.376,45.458c19.439-.341,37.324,4.168,54.653,12.883V59.2C83.595,70.214,58.472,73.864,35.257,66.374a80.984,80.984,0,0,1-9.966-4.029c-.24-.126-.493-.24-.745-.366a83.343,83.343,0,0,1-9.612-5.52c-.3-.189-.594-.392-.9-.594-2.1-1.415-2.1-1.415-2.412-2.387A109.468,109.468,0,0,1,50.376,45.458Zm0,0" transform="translate(438.053, 398.547)" fill="#f39f72"/>
  <path d="M63.064,6.453A29.232,29.232,0,0,1,83.981,14.7,44.277,44.277,0,0,1,94.325,31.93c-2.905-.215-5.785-.568-8.677-.935a109.008,109.008,0,0,0-13.906-.834h-.8c-12.795.025-24.958,2.412-37.273,5.772-.467-7.326,2.652-14.285,7.4-19.729,5.141-5.8,12.909-9.145,20.55-9.675Zm0,0" transform="translate(487.193, 311.446)" fill="#67be91"/>
</svg>